<svg id="svg" version="1.1" xmlns="http://www.w3.org/2000/svg" xmlns:xlink="http://www.w3.org/1999/xlink" width="400" height="290.1023890784983" viewBox="0, 0, 400,290.1023890784983"><g id="svgg"><path id="path0" d="M200.683 116.040 C 198.993 116.321,197.381 116.418,197.099 116.256 C 196.817 116.093,196.587 116.319,196.587 116.756 C 196.587 117.194,196.126 117.375,195.563 117.159 C 195.000 116.943,194.539 117.064,194.539 117.428 C 194.539 117.791,193.998 118.089,193.336 118.089 C 191.600 118.089,185.361 122.462,183.366 125.078 C 176.831 133.646,180.576 143.345,190.420 143.345 C 194.282 143.345,195.191 142.524,193.209 140.827 C 189.435 137.596,189.170 129.958,192.636 124.342 C 195.200 120.188,196.323 127.767,195.349 142.662 C 195.042 147.355,194.816 151.251,194.846 151.319 C 194.877 151.388,197.150 151.536,199.898 151.649 C 202.646 151.762,205.001 152.027,205.132 152.239 C 205.263 152.451,208.078 152.389,211.388 152.102 L 217.406 151.581 220.931 147.925 C 227.710 140.895,227.990 129.330,221.550 122.384 C 220.585 121.343,219.795 120.313,219.795 120.094 C 219.795 119.278,213.722 116.701,210.243 116.042 C 206.273 115.289,205.202 115.289,200.683 116.040 M57.850 117.005 C 56.067 117.485,54.608 117.774,54.608 117.648 C 54.608 116.994,47.826 121.727,45.970 123.677 C 38.333 131.699,41.765 143.481,51.685 143.297 C 56.364 143.210,57.014 142.579,54.706 140.367 C 50.312 136.157,50.395 128.484,54.886 123.723 L 57.153 121.320 57.075 136.381 L 56.997 151.442 58.593 151.747 C 60.128 152.041,66.261 151.757,66.556 151.378 C 66.635 151.277,66.452 149.044,66.149 146.416 C 65.463 140.455,65.475 129.300,66.173 123.891 C 66.814 118.926,67.157 119.303,63.111 120.521 C 58.695 121.850,57.034 121.543,59.557 119.863 C 62.226 118.087,67.719 118.105,70.140 119.898 C 76.885 124.895,76.497 131.496,69.142 136.843 C 66.443 138.805,65.640 140.541,67.662 140.041 C 68.178 139.913,70.408 139.516,72.617 139.158 C 78.435 138.215,84.493 134.055,84.694 130.864 C 84.723 130.407,84.859 129.426,84.998 128.683 C 86.601 120.073,71.150 113.427,57.850 117.005 M208.552 120.149 C 216.094 124.810,217.552 144.724,210.720 149.760 C 205.607 153.529,203.198 143.694,204.802 125.597 C 205.392 118.939,205.397 118.953,202.943 120.071 C 200.631 121.125,194.906 122.224,195.674 121.467 C 198.577 118.608,204.996 117.951,208.552 120.149 M236.206 123.324 C 234.908 123.889,232.605 124.565,231.087 124.826 C 228.482 125.274,228.347 125.413,228.669 127.326 C 228.857 128.440,229.010 133.345,229.010 138.225 C 229.010 143.106,228.857 148.020,228.669 149.147 L 228.328 151.195 233.447 151.195 L 238.567 151.195 238.340 146.877 C 238.089 142.081,239.215 136.315,240.634 135.137 C 242.012 133.994,242.600 138.197,242.082 145.494 L 241.653 151.536 246.838 151.536 C 251.445 151.536,251.973 151.406,251.576 150.371 C 251.330 149.731,250.965 145.661,250.765 141.327 C 250.159 128.209,245.137 123.888,239.686 131.793 L 238.075 134.130 238.553 128.157 C 238.815 124.872,238.926 122.209,238.798 122.240 C 238.671 122.271,237.504 122.758,236.206 123.324 M291.468 123.037 C 290.529 123.418,288.225 124.100,286.348 124.551 L 282.935 125.371 283.276 129.409 C 283.464 131.630,283.618 135.597,283.618 138.225 C 283.618 140.853,283.464 144.846,283.276 147.099 L 282.935 151.195 288.032 151.195 L 293.128 151.195 292.966 147.782 C 292.846 145.245,292.981 144.657,293.494 145.490 C 294.145 146.547,294.716 148.769,294.830 150.683 C 294.882 151.554,305.802 151.999,305.802 151.129 C 305.802 150.906,305.212 149.894,304.490 148.881 C 303.769 147.867,302.325 145.209,301.282 142.973 C 300.240 140.737,299.268 138.677,299.124 138.396 C 298.980 138.114,299.272 137.872,299.772 137.857 C 301.622 137.803,305.371 131.704,304.704 129.835 C 303.248 125.751,299.375 126.206,299.248 130.476 C 299.161 133.401,298.370 134.873,295.288 137.837 C 292.007 140.994,291.847 140.574,292.644 130.903 C 293.445 121.173,293.595 122.173,291.468 123.037 M349.147 123.587 C 347.645 124.297,345.597 124.887,344.596 124.897 C 342.459 124.918,342.035 125.757,342.515 129.010 C 342.866 131.388,342.861 131.393,341.441 130.137 C 333.794 123.366,326.643 138.810,333.865 146.498 C 334.705 147.392,335.108 148.132,334.761 148.144 C 334.414 148.156,335.358 148.922,336.860 149.847 C 340.433 152.048,353.407 152.473,352.597 150.362 C 352.010 148.833,352.011 126.321,352.598 123.982 C 353.123 121.889,352.811 121.853,349.147 123.587 M154.409 127.492 C 151.091 128.848,150.219 129.492,150.569 130.323 C 150.819 130.915,151.215 135.343,151.450 140.164 C 151.981 151.056,152.941 152.234,160.751 151.578 C 166.474 151.098,167.233 141.980,161.550 141.980 L 159.727 141.980 159.727 136.519 L 159.727 131.058 161.775 131.058 C 163.140 131.058,163.823 130.717,163.823 130.034 C 163.823 129.365,163.153 129.010,161.891 129.010 C 160.354 129.010,159.971 128.711,160.014 127.543 C 160.090 125.495,159.311 125.488,154.409 127.492 M140.956 126.836 C 138.904 127.238,137.201 129.028,137.201 130.784 C 137.201 134.164,143.396 135.785,146.075 133.106 C 149.165 130.015,145.795 125.888,140.956 126.836 M124.690 129.429 C 123.628 130.005,122.334 131.451,121.816 132.644 L 120.873 134.812 120.846 131.838 C 120.823 129.290,120.648 128.930,119.625 129.326 C 118.968 129.581,117.022 130.115,115.301 130.514 L 112.173 131.240 112.173 141.388 L 112.173 151.536 117.225 151.536 C 121.710 151.536,122.238 151.402,121.938 150.341 C 120.706 145.989,120.777 140.825,122.112 137.710 C 123.323 134.887,125.696 132.816,124.676 135.473 C 124.465 136.024,124.568 136.646,124.906 136.855 C 125.576 137.269,125.329 147.789,124.595 150.104 C 124.160 151.473,124.369 151.536,129.379 151.536 C 133.936 151.536,134.562 151.391,134.191 150.425 C 133.957 149.815,133.600 146.052,133.399 142.064 C 132.836 130.910,132.708 130.425,130.015 129.300 C 127.189 128.119,127.103 128.121,124.690 129.429 M258.365 130.258 C 255.140 132.487,254.699 133.880,256.613 135.794 C 259.378 138.558,263.725 137.225,263.044 133.821 C 262.633 131.764,264.197 129.980,265.856 130.617 C 268.651 131.689,266.165 136.676,262.204 137.941 C 256.451 139.778,254.181 142.364,254.055 147.223 C 253.992 149.682,257.123 152.273,259.644 151.847 C 263.426 151.208,264.160 150.793,265.255 148.675 L 266.331 146.594 267.581 148.649 C 269.614 151.992,273.463 152.926,277.358 151.023 C 281.994 148.758,281.814 141.980,277.117 141.980 C 274.755 141.980,274.780 141.920,276.105 144.461 C 277.306 146.764,277.420 148.548,276.405 149.175 C 275.131 149.962,274.919 149.029,274.587 141.154 C 274.222 132.515,273.552 130.806,269.935 129.295 C 266.120 127.701,261.509 128.085,258.365 130.258 M316.034 129.029 C 308.936 130.927,305.525 137.569,307.946 144.779 C 310.678 152.913,322.591 154.450,326.990 147.236 C 328.851 144.184,328.695 143.845,325.660 144.358 C 322.157 144.950,318.342 143.843,315.934 141.536 C 313.025 138.749,313.365 138.567,321.454 138.567 L 328.915 138.567 328.337 136.553 C 326.783 131.133,321.118 127.669,316.034 129.029 M89.734 130.634 L 85.610 132.082 86.111 134.812 C 86.386 136.314,86.628 139.472,86.650 141.831 C 86.714 148.765,89.062 152.603,92.800 151.883 C 95.810 151.304,96.627 150.830,97.803 148.981 L 98.999 147.099 98.817 149.147 L 98.635 151.195 103.413 151.392 L 108.191 151.589 108.191 140.292 C 108.191 130.531,108.052 129.049,107.167 129.388 C 106.604 129.605,104.454 130.251,102.389 130.826 L 98.635 131.870 98.606 137.437 C 98.546 148.872,95.735 148.713,95.429 137.257 C 95.195 128.450,95.370 128.655,89.734 130.634 M314.727 132.616 C 315.318 133.073,316.366 134.313,317.055 135.372 L 318.308 137.297 315.639 137.078 C 313.092 136.870,312.960 136.742,312.757 134.300 C 312.535 131.608,312.957 131.247,314.727 132.616 M342.871 137.901 C 343.101 139.206,343.059 141.962,342.777 144.027 L 342.264 147.782 341.041 145.486 C 339.444 142.491,338.774 136.208,339.905 134.844 C 341.056 133.457,342.316 134.756,342.871 137.901 M143.686 135.514 C 142.184 136.009,140.087 136.437,139.024 136.466 C 137.192 136.516,137.121 136.632,137.650 138.737 C 138.359 141.565,138.372 145.705,137.681 148.976 L 137.140 151.536 142.218 151.536 C 147.205 151.536,147.294 151.505,147.197 149.830 C 147.143 148.892,146.824 148.124,146.488 148.123 C 146.144 148.123,146.041 145.141,146.253 141.297 C 146.460 137.543,146.581 134.503,146.523 134.543 C 146.464 134.582,145.188 135.019,143.686 135.514 M265.212 143.981 C 264.616 145.133,263.796 146.075,263.390 146.075 C 262.428 146.075,263.204 142.874,264.714 140.614 C 266.346 138.172,266.761 140.984,265.212 143.981 M161.775 147.628 C 161.775 150.853,160.090 149.418,159.891 146.022 C 159.725 143.213,159.785 143.096,160.744 144.328 C 161.311 145.057,161.775 146.542,161.775 147.628 " stroke="none" fill="#000000" fill-rule="evenodd"></path></g></svg>